<svg xmlns="http://www.w3.org/2000/svg" viewBox="0 0 11 16"><path d="M9.75,13h0c-.414,0-.75-.336-.75-.75V3.75c0-.414,.336-.75,.75-.75h0c.414,0,.75,.336,.75,.75V12.25c0,.414-.336,.75-.75,.75Zm-2.25-.75V7.75c0-.414-.336-.75-.75-.75h0c-.414,0-.75,.336-.75,.75v4.5c0,.414,.336,.75,.75,.75h0c.414,0,.75-.336,.75-.75Zm-3,0V5.75c0-.414-.336-.75-.75-.75h0c-.414,0-.75,.336-.75,.75v6.5c0,.414,.336,.75,.75,.75h0c.414,0,.75-.336,.75-.75Zm-3,0v-2.5c0-.414-.336-.75-.75-.75h0C.336,9,0,9.336,0,9.75v2.5c0,.414,.336,.75,.75,.75h0c.414,0,.75-.336,.75-.75Z"/></svg>