<?xml version="1.0" encoding="utf-8"?>
<!-- Generator: Adobe Illustrator 26.5.0, SVG Export Plug-In . SVG Version: 6.00 Build 0)  -->
<svg version="1.1" id="Layer_1" xmlns="http://www.w3.org/2000/svg" xmlns:xlink="http://www.w3.org/1999/xlink" x="0px" y="0px"
	 viewBox="0 0 24 24" style="enable-background:new 0 0 24 24;" xml:space="preserve">
<path d="M21.6,19.4l-4.9-4.9c0.9-1.3,1.4-2.8,1.4-4.5c0-4.4-3.6-8-8-8s-8,3.6-8,8s3.6,8,8,8c1.7,0,3.2-0.5,4.5-1.4l4.9,4.9
	c0.3,0.3,0.7,0.4,1.1,0.4s0.8-0.1,1.1-0.4C22.1,21,22.1,20,21.6,19.4z M5,10c0-2.8,2.2-5,5-5s5,2.2,5,5s-2.2,5-5,5S5,12.8,5,10z"/>
</svg>
