<svg xmlns="http://www.w3.org/2000/svg" viewBox="0 0 120 48">
    <path d="M0,7.76797v8.46407H2.19302v-5.16222l1.89733,2.4271,2.05749-2.43942v5.16222h2.19302V7.76797h-2.19302l-2.05749,2.63655-1.89733-2.63655H0Zm18.71458,0v8.46407h4.81725l.46817-1.81109h-3.0924V7.76797h-2.19302Zm-4.05339,0c-2.66119,0-4.32444,1.25667-4.85421,3.12936-.51745,1.82341,.04928,4.22587,1.26899,6.62834l1.83573-1.29363s-.87474-1.13347-1.03491-2.83368h2.71047v2.83368h2.42711v-6.36961h-2.4271v1.84805h-2.2423c.20945-1.37988,1.02259-2.13142,1.90965-2.13142h3.17865l-.62834-1.81109s-2.14374,0-2.14374,0Z" />
    <path d="M45.56063,19.43917l-4.94578-4.94583c.87332-1.2825,1.38499-2.82833,1.38499-4.49333,0-4.41083-3.58913-8-7.99992-8s-7.99992,3.58917-7.99992,8,3.58913,8,7.99992,8c1.66498,0,3.2108-.51167,4.49329-1.38583l4.94578,4.94583c.29333,.29417,.67666,.44,1.06082,.44s.76833-.14583,1.06082-.43917c.58583-.58583,.58583-1.53583,0-2.12167ZM28.99997,10c0-2.76083,2.23914-5,4.99995-5s4.99995,2.23917,4.99995,5-2.23914,5-4.99995,5-4.99995-2.23917-4.99995-5Z" />
    <path d="M60,17.75c-.38379,0-.76758-.14648-1.06055-.43945l-8.5-8.5c-.58594-.58545-.58594-1.53564,0-2.12109,.58594-.58594,1.53516-.58594,2.12109,0l7.43945,7.43945,7.43945-7.43945c.58594-.58594,1.53516-.58594,2.12109,0,.58594,.58545,.58594,1.53564,0,2.12109l-8.5,8.5c-.29297,.29297-.67676,.43945-1.06055,.43945Z"/>
    <polygon points="84 2.83333 87.125 8.86417 94 9.82917 89 14.5325 90.125 21.16667 84 18.03083 77.875 21.16667 79 14.5325 74 9.82917 80.875 8.86417 84 2.83333"/>
</svg>