<svg xmlns="http://www.w3.org/2000/svg">
    <defs>
        <symbol id="mal" viewBox="0 0 24 24">
            <path d="M2,8.45791v7.05339h1.82752v-4.30185l1.58111,2.02259,1.71458-2.03285v4.30185h1.82751v-7.04312h-1.82751l-1.71458,2.19713-1.58111-2.19713h-1.82752Z" />
            <path d="M17.59548,8.45791v7.05339h4.01437l.39014-1.50924h-2.577v-5.54415h-1.82752Z" />
            <path d="M14.21766,8.45791c-2.21766,0-3.6037,1.04723-4.04517,2.6078-.43121,1.51951,.04107,3.52156,1.0575,5.52361l1.52977-1.07803s-.72895-.94456-.86242-2.3614h2.25873v2.3614h2.02259v-5.30801h-2.02259v1.54004h-1.86858c.17454-1.1499,.85216-1.77618,1.59138-1.77618h2.64887l-.52361-1.50924s-1.78645,0-1.78645,0Z" />
        </symbol>
        <symbol id="stats" viewBox="0 0 24 24">
            <path d="M4.5,20c-.82812,0-1.5-.67139-1.5-1.5v-6.5c0-.82861,.67188-1.5,1.5-1.5s1.5,.67139,1.5,1.5v6.5c0,.82861-.67188,1.5-1.5,1.5Zm6.5-1.5V7.79395c0-.82861-.67188-1.5-1.5-1.5s-1.5,.67139-1.5,1.5v10.70605c0,.82861,.67188,1.5,1.5,1.5s1.5-.67139,1.5-1.5Zm5,0V10.08838c0-.82861-.67188-1.5-1.5-1.5s-1.5,.67139-1.5,1.5v8.41162c0,.82861,.67188,1.5,1.5,1.5s1.5-.67139,1.5-1.5Zm5,0V5.5c0-.82861-.67188-1.5-1.5-1.5s-1.5,.67139-1.5,1.5v13c0,.82861,.67188,1.5,1.5,1.5s1.5-.67139,1.5-1.5Z" />
        </symbol>
        <symbol id="star" viewBox="0 0 24 24">
            <polygon points="12 2.83333 15.125 8.86417 22 9.82917 17 14.5325 18.125 21.16667 12 18.03083 5.875 21.16667 7 14.5325 2 9.82917 8.875 8.86417 12 2.83333" />
        </symbol>
        <symbol id="filter" viewBox="0 0 24 24">
            <path d="M19.5,8H4.5c-.82861,0-1.5-.67188-1.5-1.5s.67139-1.5,1.5-1.5h15c.82861,0,1.5,.67188,1.5,1.5s-.67139,1.5-1.5,1.5Z" />
            <path d="M17.5,13H6.5c-.82861,0-1.5-.67188-1.5-1.5s.67139-1.5,1.5-1.5h11c.82861,0,1.5,.67188,1.5,1.5s-.67139,1.5-1.5,1.5Z" />
            <path d="M15.5,18h-7c-.82861,0-1.5-.67188-1.5-1.5s.67139-1.5,1.5-1.5h7c.82861,0,1.5,.67188,1.5,1.5s-.67139,1.5-1.5,1.5Z" />
        </symbol>
        <symbol id="chevrown-down" viewBox="0 0 24 24">
            <path d="M12,17.75c-.38379,0-.76758-.14648-1.06055-.43945L2.43945,8.81055c-.58594-.58545-.58594-1.53564,0-2.12109,.58594-.58594,1.53516-.58594,2.12109,0l7.43945,7.43945,7.43945-7.43945c.58594-.58594,1.53516-.58594,2.12109,0,.58594,.58545,.58594,1.53564,0,2.12109l-8.5,8.5c-.29297,.29297-.67676,.43945-1.06055,.43945Z" />
        </symbol>
        <symbol id="search" viewBox="0 0 24 24">
            <path d="M21.56055,19.43945l-4.94385-4.94385c.87238-1.28143,1.3833-2.82855,1.3833-4.49561,0-4.41827-3.58173-8-8-8S2,5.58173,2,10s3.58173,8,8,8c1.66705,0,3.21417-.51093,4.49561-1.3833l4.94385,4.94385c.29297,.29297,.67676,.43945,1.06055,.43945s.76758-.14648,1.06055-.43945c.58594-.58594,.58594-1.53516,0-2.12109Zm-11.56055-4.43945c-2.75702,0-5-2.24298-5-5s2.24298-5,5-5,5,2.24298,5,5-2.24298,5-5,5Z" />
        </symbol>
    </defs>
</svg>