<svg xmlns="http://www.w3.org/2000/svg" viewBox="0 0 24 24">
    <path d="M2,8.45791v7.05339h1.82752v-4.30185l1.58111,2.02259,1.71458-2.03285v4.30185h1.82751v-7.04312h-1.82751l-1.71458,2.19713-1.58111-2.19713h-1.82752Z" />
    <path d="M17.59548,8.45791v7.05339h4.01437l.39014-1.50924h-2.577v-5.54415h-1.82752Z" />
    <path d="M14.21766,8.45791c-2.21766,0-3.6037,1.04723-4.04517,2.6078-.43121,1.51951,.04107,3.52156,1.0575,5.52361l1.52977-1.07803s-.72895-.94456-.86242-2.3614h2.25873v2.3614h2.02259v-5.30801h-2.02259v1.54004h-1.86858c.17454-1.1499,.85216-1.77618,1.59138-1.77618h2.64887l-.52361-1.50924s-1.78645,0-1.78645,0Z" />
</svg>