<svg xmlns="http://www.w3.org/2000/svg" viewBox="0 0 24 24">
    <path d="M4.5,20c-.82812,0-1.5-.67139-1.5-1.5v-6.5c0-.82861,.67188-1.5,1.5-1.5s1.5,.67139,1.5,1.5v6.5c0,.82861-.67188,1.5-1.5,1.5Zm6.5-1.5V7.79395c0-.82861-.67188-1.5-1.5-1.5s-1.5,.67139-1.5,1.5v10.70605c0,.82861,.67188,1.5,1.5,1.5s1.5-.67139,1.5-1.5Zm5,0V10.08838c0-.82861-.67188-1.5-1.5-1.5s-1.5,.67139-1.5,1.5v8.41162c0,.82861,.67188,1.5,1.5,1.5s1.5-.67139,1.5-1.5Zm5,0V5.5c0-.82861-.67188-1.5-1.5-1.5s-1.5,.67139-1.5,1.5v13c0,.82861,.67188,1.5,1.5,1.5s1.5-.67139,1.5-1.5Z" />
</svg>